<svg width="12" height="10" viewBox="0 0 12 10" fill="none" xmlns="http://www.w3.org/2000/svg">
<g clip-path="url(#clip0_1044_489)">
<path d="M7.31956 0.142416C7.12872 -0.047472 6.81911 -0.047472 6.62797 0.142416C6.43698 0.332152 6.43698 0.640128 6.62797 0.830017L10.3319 4.5126H0.490613C0.219723 4.5126 0 4.73105 0 5.00038C0 5.26986 0.219723 5.48816 0.490613 5.48816H10.327L6.62305 9.17074C6.53116 9.26179 6.47954 9.38569 6.47954 9.51462C6.47954 9.64371 6.53116 9.7673 6.62305 9.8585C6.71493 9.95062 6.84077 10.0016 6.97138 9.99996C7.10152 9.99935 7.22644 9.94863 7.31956 9.8585L11.8575 5.34685C11.9499 5.25489 12.0014 5.13008 12 5.00038C11.9991 4.87099 11.948 4.74725 11.8575 4.65421L7.31956 0.142416Z" fill="white"/>
</g>
<defs>
<clipPath id="clip0_1044_489">
<rect width="12" height="10" fill="white"/>
</clipPath>
</defs>
</svg>
