<svg width="12" height="10" viewBox="0 0 12 10" fill="none" xmlns="http://www.w3.org/2000/svg">
<g clip-path="url(#clip0_1044_480)">
<path d="M4.68044 0.142416C4.87128 -0.047472 5.18089 -0.047472 5.37203 0.142416C5.56302 0.332152 5.56302 0.640128 5.37203 0.830017L1.66808 4.5126H11.5094C11.7803 4.5126 12 4.73105 12 5.00038C12 5.26986 11.7803 5.48816 11.5094 5.48816H1.673L5.37695 9.17074C5.46884 9.26179 5.52046 9.38569 5.52046 9.51462C5.52046 9.64371 5.46884 9.7673 5.37695 9.8585C5.28507 9.95062 5.15923 10.0016 5.02862 9.99996C4.89848 9.99935 4.77356 9.94863 4.68044 9.8585L0.142463 5.34685C0.0501179 5.25489 -0.0013557 5.13008 2.71614e-05 5.00038C0.000949098 4.87099 0.0519618 4.74725 0.142463 4.65421L4.68044 0.142416Z" fill="white"/>
</g>
<defs>
<clipPath id="clip0_1044_480">
<rect width="12" height="10" fill="white"/>
</clipPath>
</defs>
</svg>
